# xmcd
#
# Track frame offsets:
#	182
#	12485
#	24875
#	42850
#	54267
#	69340
#	87555
#	104197
#	117785
#	130570
#	153267
#
# Disc length: 2290 seconds
#
# Revision: 3
# Processed by: cddbd v1.4b41PL2 Copyright (c) Steve Scherf et al.
# Submitted via: CDmax 1.7.6
#
DISCID=8408f00b
DTITLE=Jim Lauderdale - Pretty Close To The Truth
DYEAR=1900
DGENRE=
TTITLE0=This Is The Big Time
TTITLE1=I'm On Your Side
TTITLE2=Why Do I Love You?
TTITLE3=Divide and Conquer
TTITLE4=Grace's Song
TTITLE5=Run Like You
TTITLE6=Can't Find Mary
TTITLE7=Don't Trust Me
TTITLE8=Three Way Conversation
TTITLE9=Pretty Close to the Truth
TTITLE10=When the Devil Starts Crying
EXTD=
EXTT0=
EXTT1=
EXTT2=
EXTT3=
EXTT4=
EXTT5=
EXTT6=
EXTT7=
EXTT8=
EXTT9=
EXTT10=
PLAYORDER=
